<svg width="34" height="34" viewBox="0 0 34 34" fill="none" xmlns="http://www.w3.org/2000/svg">
<path d="M0.5 6C0.5 2.96243 2.96243 0.5 6 0.5H28C31.0376 0.5 33.5 2.96243 33.5 6V28C33.5 31.0376 31.0376 33.5 28 33.5H6C2.96243 33.5 0.5 31.0376 0.5 28V6Z" fill="white" stroke="#C7C9D9"/>
<path d="M19.5003 16.9998C19.5003 17.6629 19.2369 18.2988 18.7681 18.7676C18.2993 19.2364 17.6634 19.4998 17.0003 19.4998C16.3373 19.4998 15.7014 19.2364 15.2326 18.7676C14.7637 18.2988 14.5003 17.6629 14.5003 16.9998C14.5003 16.3368 14.7637 15.7009 15.2326 15.2321C15.7014 14.7632 16.3373 14.4998 17.0003 14.4998C17.6634 14.4998 18.2993 14.7632 18.7681 15.2321C19.2369 15.7009 19.5003 16.3368 19.5003 16.9998Z" stroke="#616161" stroke-linecap="round" stroke-linejoin="round"/>
<path d="M8.66699 16.9998C10.0003 13.5857 13.1137 11.1665 17.0003 11.1665C20.887 11.1665 24.0003 13.5857 25.3337 16.9998C24.0003 20.414 20.887 22.8332 17.0003 22.8332C13.1137 22.8332 10.0003 20.414 8.66699 16.9998Z" stroke="#616161" stroke-linecap="round" stroke-linejoin="round"/>
</svg>
