<svg width="163" height="44" viewBox="0 0 163 44" fill="none" xmlns="http://www.w3.org/2000/svg">
<mask id="mask0_360_2939" style="mask-type:luminance" maskUnits="userSpaceOnUse" x="0" y="0" width="44" height="44">
<path d="M43.5445 0H0V44H43.5445V0Z" fill="white"/>
</mask>
<g mask="url(#mask0_360_2939)">
<path d="M37.1447 37.5223C41.2507 33.4006 43.5525 27.8176 43.5445 21.9999C43.5401 21.6408 43.3946 21.2979 43.139 21.0456C42.8835 20.793 42.539 20.6516 42.1799 20.6516C41.8206 20.6516 41.4761 20.793 41.2206 21.0456C40.9651 21.2979 40.8195 21.6408 40.8151 21.9999C40.8209 27.0983 38.8026 31.9907 35.2039 35.6022C33.4569 37.3958 31.3684 38.8214 29.0613 39.7948C26.7545 40.7681 24.276 41.2696 21.7723 41.2696C19.2684 41.2696 16.79 40.7681 14.4831 39.7948C12.1762 38.8214 10.0876 37.3958 8.34062 35.6022C4.7467 31.9872 2.72945 27.0967 2.72945 21.9991C2.72945 16.9014 4.7467 12.011 8.34062 8.39581C10.0775 6.61602 12.1504 5.19871 14.4391 4.22606C16.7278 3.25342 19.1869 2.74478 21.6737 2.72964C22.2046 2.74627 22.7081 2.9697 23.0767 3.35226C23.4454 3.7348 23.6499 4.24623 23.6467 4.77746C23.6437 5.30869 23.4332 5.81769 23.0602 6.19594C22.6872 6.57418 22.1811 6.79172 21.65 6.80217C21.6008 6.80227 21.5516 6.805 21.5028 6.81034C17.7194 6.93218 14.1295 8.51192 11.4839 11.2192C8.68988 14.0319 7.12177 17.8355 7.12177 21.8C7.12177 25.7646 8.68988 29.568 11.4839 32.3807C12.8489 33.779 14.4797 34.8901 16.2804 35.6486C18.0811 36.4072 20.0155 36.798 21.9694 36.798C23.9233 36.798 25.8577 36.4072 27.6585 35.6486C29.4591 34.8901 31.0899 33.779 32.455 32.3807C35.2533 29.571 36.822 25.7656 36.8165 21.8C36.8222 21.1754 36.7041 20.5556 36.4691 19.9769C36.2339 19.3983 35.8866 18.8718 35.4469 18.4281C35.0071 17.9843 34.4839 17.6321 33.9074 17.3918C33.3308 17.1514 32.7125 17.0276 32.0877 17.0276C31.463 17.0276 30.8446 17.1514 30.268 17.3918C29.6915 17.6321 29.1683 17.9843 28.7286 18.4281C28.2888 18.8718 27.9415 19.3983 27.7063 19.9769C27.4713 20.5556 27.3532 21.1754 27.359 21.8C27.359 21.8398 27.3616 21.8772 27.3647 21.9155C27.3616 21.9537 27.359 21.992 27.359 22.031C27.3679 23.12 27.0531 24.187 26.4544 25.097C25.8559 26.0067 25.0006 26.7181 23.997 27.1411C22.9935 27.5639 21.8868 27.6792 20.8177 27.4723C19.7485 27.2652 18.7649 26.7454 17.9916 25.9784C17.2184 25.2115 16.6904 24.2323 16.4747 23.1648C16.259 22.0973 16.3652 20.9898 16.7798 19.9829C17.1945 18.9758 17.899 18.1147 18.8039 17.5087C19.7087 16.9027 20.7733 16.5791 21.8623 16.5791C22.0429 16.5813 22.2221 16.5476 22.3896 16.48C22.5571 16.4124 22.7095 16.3122 22.8379 16.1853C22.9664 16.0583 23.0686 15.9072 23.1381 15.7405C23.2078 15.5738 23.2436 15.395 23.2436 15.2144C23.2436 15.0338 23.2078 14.855 23.1381 14.6883C23.0686 14.5216 22.9664 14.3705 22.8379 14.2435C22.7095 14.1166 22.5571 14.0164 22.3896 13.9488C22.2221 13.8812 22.0429 13.8475 21.8623 13.8497C20.2461 13.8586 18.6688 14.3461 17.3293 15.2505C15.9898 16.155 14.9483 17.4359 14.336 18.9317C13.7237 20.4274 13.5682 22.071 13.889 23.6551C14.2098 25.2392 14.9926 26.6926 16.1386 27.8324C17.2846 28.972 18.7425 29.7467 20.3284 30.0587C21.9141 30.3706 23.5569 30.2059 25.0492 29.5854C26.5414 28.9648 27.8166 27.9162 28.7136 26.5717C29.6106 25.2272 30.0892 23.6471 30.0892 22.031C30.0892 21.9912 30.0866 21.9537 30.0834 21.9155C30.0866 21.8772 30.0892 21.839 30.0892 21.8C30.0838 21.5341 30.1316 21.2698 30.2298 21.0225C30.3278 20.7753 30.4743 20.5501 30.6604 20.3603C30.8466 20.1703 31.0688 20.0193 31.314 19.9164C31.5591 19.8134 31.8226 19.7603 32.0885 19.7603C32.3544 19.7603 32.6179 19.8134 32.863 19.9164C33.1082 20.0193 33.3304 20.1703 33.5167 20.3603C33.7027 20.5501 33.8492 20.7753 33.9472 21.0225C34.0454 21.2698 34.0932 21.5341 34.0878 21.8C34.0914 25.0466 32.8063 28.1618 30.5146 30.4614C29.4035 31.603 28.0749 32.5101 26.6073 33.1297C25.1398 33.7493 23.5629 34.0683 21.9698 34.0683C20.377 34.0683 18.8001 33.7493 17.3325 33.1297C15.8649 32.5101 14.5364 31.603 13.4253 30.4614C11.1367 28.1598 9.85205 25.0458 9.85205 21.8C9.85205 18.5541 11.1367 15.4402 13.4253 13.1385C14.5373 11.9984 15.8659 11.0921 17.3331 10.4727C18.8003 9.85325 20.3764 9.53331 21.969 9.5316C22.0915 9.53126 22.2134 9.51439 22.3315 9.48141C23.4934 9.30323 24.5483 8.70235 25.2943 7.79409C26.0404 6.8858 26.4247 5.73406 26.3737 4.55982C26.3228 3.38556 25.8398 2.27149 25.0179 1.43131C24.196 0.59112 23.0929 0.0839852 21.92 0.00718888C21.871 0.00185252 21.8216 -0.000873181 21.7723 -0.000976562C21.7448 -0.000976562 21.7175 -0.000976562 21.69 -0.000976562C21.6765 -0.000976562 21.6633 -0.000976562 21.6502 -0.000976562C21.637 -0.000976562 21.6235 0.000615585 21.6103 0.0010139C18.7732 0.0233264 15.9685 0.607024 13.358 1.71845C10.7474 2.82988 8.38278 4.44706 6.40025 6.47675C2.30103 10.6028 0.000366211 16.1828 0.000366211 21.9991C0.000366211 27.8153 2.30103 33.3952 6.40025 37.5213C8.4011 39.5716 10.7919 41.2011 13.4319 42.3134C16.0719 43.4259 18.9078 43.999 21.7727 43.999C24.6375 43.999 27.4733 43.4259 30.1135 42.3134C32.7535 41.2011 35.1441 39.5716 37.1451 37.5213L37.1447 37.5223Z" fill="url(#paint0_linear_360_2939)"/>
</g>
<path d="M67.1645 8V22H64.5045L58.7645 12.8V22H55.9045V8H58.6845L64.3045 17.06V8H67.1645ZM74.3089 22.2C72.6956 22.2 71.4356 21.74 70.5289 20.82C69.6222 19.9 69.1689 18.6267 69.1689 17C69.1689 15.3733 69.6222 14.1 70.5289 13.18C71.4356 12.26 72.6956 11.8 74.3089 11.8C75.9222 11.8 77.1822 12.26 78.0889 13.18C79.0089 14.1 79.4689 15.3733 79.4689 17C79.4689 18.6267 79.0089 19.9 78.0889 20.82C77.1822 21.74 75.9222 22.2 74.3089 22.2ZM74.3089 20.3C75.1222 20.3 75.7622 20.0067 76.2289 19.42C76.6956 18.8333 76.9289 18.0267 76.9289 17C76.9289 15.9733 76.6956 15.1667 76.2289 14.58C75.7622 13.9933 75.1222 13.7 74.3089 13.7C73.4956 13.7 72.8556 13.9933 72.3889 14.58C71.9356 15.1667 71.7089 15.9733 71.7089 17C71.7089 18.0267 71.9356 18.8333 72.3889 19.42C72.8556 20.0067 73.4956 20.3 74.3089 20.3ZM90.2156 12L86.2956 22H84.0956L80.1756 12H82.8156L85.1956 18.88L87.5756 12H90.2156ZM93.8966 22.2C93.2432 22.2 92.6566 22.0667 92.1366 21.8C91.6166 21.52 91.2099 21.14 90.9166 20.66C90.6232 20.1667 90.4766 19.62 90.4766 19.02C90.4766 17.9933 90.8832 17.2067 91.6966 16.66C92.5099 16.1133 93.6699 15.84 95.1766 15.84H96.7366V15.42C96.7366 14.8867 96.5766 14.48 96.2566 14.2C95.9499 13.9067 95.5099 13.76 94.9366 13.76C94.3366 13.76 93.7632 13.8667 93.2166 14.08C92.6699 14.2933 92.2232 14.5867 91.8766 14.96L90.7566 13.48C91.3032 12.96 91.9499 12.5533 92.6966 12.26C93.4432 11.9533 94.2166 11.8 95.0166 11.8C96.3499 11.8 97.3966 12.1133 98.1566 12.74C98.9166 13.3667 99.2966 14.2333 99.2966 15.34V19.9C99.2966 20.2067 99.3166 20.5667 99.3566 20.98C99.4099 21.3933 99.4699 21.7333 99.5366 22H97.2766C97.1966 21.8267 97.1366 21.66 97.0966 21.5C97.0566 21.3267 97.0232 21.0933 96.9966 20.8H96.9566C96.1966 21.7333 95.1766 22.2 93.8966 22.2ZM94.5166 20.28C95.1566 20.28 95.6832 20.12 96.0966 19.8C96.5232 19.4667 96.7366 19.0467 96.7366 18.54V17.54H95.0966C94.4166 17.54 93.8899 17.6667 93.5166 17.92C93.1566 18.1733 92.9766 18.54 92.9766 19.02C92.9766 19.42 93.1099 19.7333 93.3766 19.96C93.6566 20.1733 94.0366 20.28 94.5166 20.28ZM109.59 10.12H105.43V8H116.63V10.12H112.47V22H109.59V10.12ZM119.647 10.84C119.154 10.84 118.761 10.7067 118.467 10.44C118.174 10.16 118.027 9.79333 118.027 9.34C118.027 8.88667 118.174 8.52667 118.467 8.26C118.761 7.98 119.154 7.84 119.647 7.84C120.141 7.84 120.534 7.98 120.827 8.26C121.134 8.52667 121.287 8.88667 121.287 9.34C121.287 9.79333 121.141 10.16 120.847 10.44C120.554 10.7067 120.154 10.84 119.647 10.84ZM118.387 12H120.927V22H118.387V12ZM127.916 22.2C126.369 22.2 125.149 21.74 124.256 20.82C123.376 19.8867 122.936 18.6133 122.936 17C122.936 15.3733 123.376 14.1 124.256 13.18C125.149 12.26 126.369 11.8 127.916 11.8C128.849 11.8 129.663 11.9733 130.356 12.32C131.049 12.6667 131.583 13.16 131.956 13.8L130.416 15.14C130.163 14.7 129.823 14.36 129.396 14.12C128.983 13.88 128.529 13.76 128.036 13.76C127.236 13.76 126.609 14.0467 126.156 14.62C125.703 15.1933 125.476 15.9867 125.476 17C125.476 18.0133 125.703 18.8067 126.156 19.38C126.609 19.9533 127.236 20.24 128.036 20.24C128.529 20.24 128.983 20.12 129.396 19.88C129.809 19.6267 130.149 19.2867 130.416 18.86L131.956 20.2C131.583 20.84 131.049 21.3333 130.356 21.68C129.663 22.0267 128.849 22.2 127.916 22.2ZM139.96 22L137 17.34L135.8 18.52V22H133.24V7.16H135.8V15.46L139.32 12H142.46L138.76 15.62L142.84 22H139.96ZM152.733 17.94H145.773C145.987 19.3533 146.807 20.06 148.233 20.06C148.82 20.06 149.327 19.96 149.753 19.76C150.193 19.56 150.62 19.2267 151.033 18.76L152.413 20.08C152.027 20.72 151.44 21.2333 150.653 21.62C149.88 22.0067 149.027 22.2 148.093 22.2C146.533 22.2 145.32 21.7467 144.453 20.84C143.587 19.92 143.153 18.6533 143.153 17.04C143.153 15.4133 143.587 14.1333 144.453 13.2C145.333 12.2667 146.54 11.8 148.073 11.8C149.54 11.8 150.68 12.26 151.493 13.18C152.32 14.1 152.733 15.38 152.733 17.02V17.94ZM150.233 16.08C150.233 15.4 150.033 14.8667 149.633 14.48C149.247 14.08 148.707 13.88 148.013 13.88C147.387 13.88 146.88 14.0867 146.493 14.5C146.107 14.9 145.86 15.4667 145.753 16.2H150.233V16.08ZM158.673 22.2C157.646 22.2 156.846 21.92 156.273 21.36C155.7 20.8 155.413 20.0133 155.413 19V13.9H153.593V12H155.413V9.42L157.893 8.7H157.973V12H160.873V13.9H157.973V18.62C157.973 19.1933 158.106 19.6133 158.373 19.88C158.64 20.1467 159.046 20.28 159.593 20.28C160.113 20.28 160.6 20.2 161.053 20.04L161.173 21.78C160.573 22.06 159.74 22.2 158.673 22.2Z" fill="#46287A"/>
<path d="M55.4205 31.6H60.8085V32.824H56.9325V34.972H60.4005V36.196H56.9325V38.776H60.8085V40H55.4205V31.6ZM61.6537 36.328H65.0977V37.276H61.6537V36.328ZM68.1318 32.728H65.5998V31.6H72.1758V32.728H69.6438V40H68.1318V32.728ZM73.4847 31.6H75.0087V40H73.4847V31.6ZM80.3185 40.12C79.5505 40.12 78.8785 39.944 78.3025 39.592C77.7345 39.24 77.2945 38.74 76.9825 38.092C76.6705 37.436 76.5145 36.672 76.5145 35.8C76.5145 34.92 76.6705 34.156 76.9825 33.508C77.2945 32.86 77.7385 32.36 78.3145 32.008C78.8905 31.656 79.5665 31.48 80.3425 31.48C80.9905 31.48 81.5585 31.604 82.0465 31.852C82.5345 32.1 82.8945 32.448 83.1265 32.896L82.2625 33.676C81.8305 33.028 81.1945 32.704 80.3545 32.704C79.6105 32.704 79.0385 32.972 78.6385 33.508C78.2385 34.036 78.0385 34.8 78.0385 35.8C78.0385 36.792 78.2345 37.556 78.6265 38.092C79.0185 38.628 79.5785 38.896 80.3065 38.896C81.1945 38.896 81.8465 38.568 82.2625 37.912L83.1265 38.692C82.8945 39.148 82.5345 39.5 82.0465 39.748C81.5585 39.996 80.9825 40.12 80.3185 40.12ZM89.2992 40L86.9232 36.1L85.8192 37.444V40H84.2952V31.6H85.8192V35.452L88.8072 31.6H90.5832L87.9192 34.864L90.9672 40H89.2992ZM91.9713 31.6H97.3593V32.824H93.4833V34.972H96.9513V36.196H93.4833V38.776H97.3593V40H91.9713V31.6ZM100.604 32.728H98.0725V31.6H104.648V32.728H102.116V40H100.604V32.728ZM111.877 40.12C111.109 40.12 110.437 39.944 109.861 39.592C109.293 39.24 108.853 38.74 108.541 38.092C108.229 37.436 108.073 36.672 108.073 35.8C108.073 34.92 108.229 34.156 108.541 33.508C108.853 32.86 109.297 32.36 109.873 32.008C110.449 31.656 111.125 31.48 111.901 31.48C112.549 31.48 113.117 31.604 113.605 31.852C114.093 32.1 114.453 32.448 114.685 32.896L113.821 33.676C113.389 33.028 112.753 32.704 111.913 32.704C111.169 32.704 110.597 32.972 110.197 33.508C109.797 34.036 109.597 34.8 109.597 35.8C109.597 36.792 109.793 37.556 110.185 38.092C110.577 38.628 111.137 38.896 111.865 38.896C112.753 38.896 113.405 38.568 113.821 37.912L114.685 38.692C114.453 39.148 114.093 39.5 113.605 39.748C113.117 39.996 112.541 40.12 111.877 40.12ZM119.082 40.12C118.322 40.12 117.662 39.948 117.102 39.604C116.542 39.252 116.114 38.752 115.818 38.104C115.522 37.456 115.374 36.688 115.374 35.8C115.374 34.912 115.522 34.144 115.818 33.496C116.114 32.848 116.542 32.352 117.102 32.008C117.662 31.656 118.322 31.48 119.082 31.48C119.842 31.48 120.498 31.656 121.05 32.008C121.61 32.352 122.038 32.848 122.334 33.496C122.63 34.144 122.778 34.912 122.778 35.8C122.778 36.688 122.63 37.456 122.334 38.104C122.038 38.752 121.61 39.252 121.05 39.604C120.498 39.948 119.842 40.12 119.082 40.12ZM119.082 38.908C119.754 38.908 120.282 38.632 120.666 38.08C121.058 37.528 121.254 36.768 121.254 35.8C121.254 34.832 121.058 34.072 120.666 33.52C120.282 32.96 119.754 32.68 119.082 32.68C118.402 32.68 117.866 32.96 117.474 33.52C117.09 34.072 116.898 34.832 116.898 35.8C116.898 36.768 117.09 37.528 117.474 38.08C117.866 38.632 118.402 38.908 119.082 38.908ZM132.014 31.6V40H130.514V34.6L128.558 40H127.49L125.522 34.564V40H124.034V31.6H125.666L128.018 38.26L130.382 31.6H132.014ZM133.749 31.6H136.437C137.405 31.6 138.137 31.824 138.633 32.272C139.137 32.712 139.389 33.364 139.389 34.228C139.389 35.148 139.129 35.848 138.609 36.328C138.097 36.8 137.353 37.036 136.377 37.036H135.261V40H133.749V31.6ZM136.509 35.812C136.965 35.812 137.313 35.684 137.553 35.428C137.793 35.164 137.913 34.784 137.913 34.288C137.913 33.808 137.785 33.444 137.529 33.196C137.281 32.948 136.913 32.824 136.425 32.824H135.261V35.812H136.509ZM144.199 38.464H141.187L140.719 40H139.123L142.015 31.6H143.371L146.263 40H144.667L144.199 38.464ZM143.827 37.252L142.699 33.58L141.559 37.252H143.827ZM153.895 31.6V40H152.479L148.819 34.108V40H147.307V31.6H148.807L152.383 37.396V31.6H153.895ZM157.667 36.652L154.955 31.6H156.611L158.423 35.26L160.235 31.6H161.891L159.191 36.652V40H157.667V36.652Z" fill="black"/>
<defs>
<linearGradient id="paint0_linear_360_2939" x1="6.31427" y1="37.443" x2="33.9855" y2="10.3632" gradientUnits="userSpaceOnUse">
<stop stop-color="#41287B"/>
<stop offset="0.123" stop-color="#462779"/>
<stop offset="0.284" stop-color="#572775"/>
<stop offset="0.465" stop-color="#72266E"/>
<stop offset="0.663" stop-color="#982565"/>
<stop offset="0.87" stop-color="#C82459"/>
<stop offset="0.99" stop-color="#E72452"/>
</linearGradient>
</defs>
</svg>
