<svg width="189" height="44" viewBox="0 0 189 44" fill="none" xmlns="http://www.w3.org/2000/svg">
<mask id="mask0_1_17" style="mask-type:luminance" maskUnits="userSpaceOnUse" x="0" y="0" width="50" height="44">
<path d="M49.7021 0H0V44H49.7021V0Z" fill="white"/>
</mask>
<g mask="url(#mask0_1_17)">
<path d="M43.0937 6.21328L40.6666 18.5065C40.6616 18.5311 40.6634 18.5565 40.6718 18.5802C40.6799 18.6038 40.6945 18.6248 40.7137 18.641C40.7328 18.6571 40.756 18.6679 40.7806 18.672C40.8054 18.6762 40.8308 18.6736 40.8541 18.6646L43.4491 17.6867C43.4553 17.7227 43.4616 17.76 43.4674 17.7946C44.0905 21.721 43.6339 25.7428 42.1466 29.4295C40.6591 33.1162 38.1969 36.3288 35.0237 38.7234C31.8502 41.1179 28.0854 42.6042 24.1319 43.023C20.1787 43.4419 16.1859 42.7776 12.5812 41.101C16.361 43.1973 20.6535 44.1896 24.9697 43.965C29.2859 43.7403 33.4524 42.308 36.994 39.8309C40.5359 37.3537 43.3107 33.9316 45.0022 29.9542C46.6938 25.977 47.2343 21.6045 46.5618 17.3351L49.5504 17.5777C49.5758 17.5797 49.6011 17.5747 49.624 17.5634C49.6467 17.5521 49.6659 17.5349 49.6796 17.5135C49.6934 17.4921 49.7009 17.4673 49.7017 17.4419C49.7023 17.4166 49.6963 17.3914 49.6838 17.3693L43.3532 6.17077C43.339 6.14591 43.3176 6.12599 43.2917 6.11367C43.2659 6.10135 43.2369 6.09723 43.2088 6.10185C43.1804 6.10648 43.1544 6.11965 43.1338 6.13955C43.1131 6.15948 43.0992 6.18521 43.0937 6.21328Z" fill="url(#paint0_linear_1_17)"/>
<path d="M38.4578 31.8602C36.4972 34.3538 33.9792 36.3532 31.1063 37.6977C28.2331 39.0423 25.0849 39.6948 21.9142 39.6027C18.7434 39.5106 15.6383 38.6766 12.8481 37.1676C10.0579 35.6584 7.66033 33.5163 5.84771 30.913C4.03507 28.31 2.85787 25.3181 2.41055 22.1776C1.96326 19.0372 2.2583 15.8356 3.27204 12.8298C4.28575 9.82405 5.98992 7.09773 8.24779 4.86964C10.5057 2.64155 13.2544 0.973721 16.2734 0C12.3831 0.956122 8.8399 2.98642 6.04798 5.85928C3.25603 8.73215 1.32778 12.3319 0.48317 16.2479C-0.361438 20.1638 -0.0883883 24.2384 1.27117 28.0066C2.63074 31.775 5.02207 35.0851 8.17237 37.5598C11.3227 40.0345 15.1051 41.5739 19.0881 42.0023C23.0712 42.4308 27.0944 41.7312 30.699 39.9832C34.3037 38.2352 37.3443 35.5094 39.4743 32.1165C41.6041 28.7236 42.7376 24.8004 42.7453 20.7944C42.4592 24.8298 40.9652 28.6855 38.4578 31.8602Z" fill="url(#paint1_linear_1_17)"/>
<path d="M33.9969 10.4318C32.7467 12.0241 31.325 13.474 29.7575 14.7552C29.7416 14.7682 29.7287 14.7846 29.72 14.8032C29.7112 14.8218 29.7066 14.8422 29.7066 14.8627V34.7542C29.7066 34.9142 29.6558 35.0701 29.5614 35.1993C29.467 35.3287 29.334 35.4246 29.1817 35.4733L29.1654 35.4785C29.0525 35.5148 28.9327 35.5238 28.8155 35.5048C28.6984 35.486 28.5873 35.4396 28.4917 35.3698C28.3958 35.2997 28.3179 35.2083 28.2641 35.1026C28.2104 34.9967 28.1824 34.8798 28.1824 34.7612V16.2162C28.1824 16.1907 28.1756 16.1657 28.1624 16.1439C28.1493 16.1221 28.1303 16.1043 28.1076 16.0925C28.0851 16.0807 28.0597 16.0753 28.0343 16.077C28.0088 16.0786 27.9843 16.0872 27.9634 16.1018C25.8878 17.531 23.6251 18.667 21.2392 19.4778C21.2116 19.4871 21.1877 19.5048 21.1706 19.5284C21.1537 19.5521 21.1445 19.5804 21.1445 19.6095V35.6744C21.1445 35.7859 21.1197 35.8962 21.072 35.9968C21.0243 36.0977 20.9549 36.1867 20.8688 36.2575C20.7826 36.3284 20.6818 36.379 20.5736 36.4063C20.4655 36.4334 20.3526 36.4363 20.2432 36.4147L20.2136 36.4088C20.043 36.3751 19.8894 36.2829 19.7792 36.1483C19.6689 36.0137 19.6089 35.8451 19.6093 35.6711C19.6133 33.9414 19.6172 31.6126 19.6201 31.6143V20.1562C19.6201 20.1348 19.6152 20.1137 19.6058 20.0945C19.5963 20.0754 19.5825 20.0586 19.5656 20.0456C19.5486 20.0326 19.5289 20.0237 19.5079 20.0196C19.4869 20.0154 19.4653 20.0162 19.4447 20.0217L19.3757 20.0399C17.4292 20.5514 15.707 21.693 14.4779 23.2866C13.2489 24.8804 12.5822 26.8362 12.582 28.8487V31.4872C12.5824 31.6345 12.5395 31.7789 12.4588 31.9021C12.378 32.0254 12.2628 32.1224 12.1276 32.1809C11.9923 32.2393 11.8428 32.257 11.6976 32.2313C11.5525 32.2059 11.418 32.1384 11.3108 32.0371C8.32128 29.1638 6.42043 25.3429 5.93207 21.2252C5.44372 17.1076 6.39809 12.948 8.6326 9.45513C10.8671 5.96223 14.2435 3.35211 18.1866 2.06941C22.1296 0.786711 26.3955 0.910794 30.2574 2.42053C27.2167 0.975038 23.8447 0.369491 20.491 0.666703C17.1374 0.963913 13.9244 2.15305 11.1853 4.11075C8.44623 6.06847 6.28089 8.72342 4.91388 11.8002C3.5469 14.877 3.02806 18.2634 3.41121 21.6084C3.79436 24.9532 5.06555 28.1347 7.09289 30.8226C9.12024 33.5107 11.8299 35.6071 14.9407 36.8948C18.0515 38.1823 21.4503 38.614 24.7842 38.1454C28.1183 37.6765 31.2658 36.324 33.901 34.2284C34.8202 33.594 35.6778 32.8744 36.4617 32.079L36.5441 31.9909C36.6739 31.8516 36.746 31.6683 36.7456 31.4778V6.94269C36.7456 6.94269 36.7456 6.85516 36.7456 6.73909C36.7458 6.70806 36.7356 6.67784 36.7168 6.65319C36.6979 6.62855 36.6714 6.61088 36.6414 6.60298C36.6114 6.59508 36.5795 6.5974 36.5509 6.60955C36.5224 6.6217 36.4988 6.64299 36.4836 6.67011C35.7586 7.98972 34.9269 9.24782 33.9969 10.4318Z" fill="url(#paint2_linear_1_17)"/>
</g>
<path d="M73.3221 8V22H70.6621L64.9221 12.8V22H62.0621V8H64.8421L70.4621 17.06V8H73.3221ZM80.4665 22.2C78.8531 22.2 77.5931 21.74 76.6865 20.82C75.7798 19.9 75.3265 18.6267 75.3265 17C75.3265 15.3733 75.7798 14.1 76.6865 13.18C77.5931 12.26 78.8531 11.8 80.4665 11.8C82.0798 11.8 83.3398 12.26 84.2465 13.18C85.1665 14.1 85.6265 15.3733 85.6265 17C85.6265 18.6267 85.1665 19.9 84.2465 20.82C83.3398 21.74 82.0798 22.2 80.4665 22.2ZM80.4665 20.3C81.2798 20.3 81.9198 20.0067 82.3865 19.42C82.8531 18.8333 83.0865 18.0267 83.0865 17C83.0865 15.9733 82.8531 15.1667 82.3865 14.58C81.9198 13.9933 81.2798 13.7 80.4665 13.7C79.6531 13.7 79.0131 13.9933 78.5465 14.58C78.0931 15.1667 77.8665 15.9733 77.8665 17C77.8665 18.0267 78.0931 18.8333 78.5465 19.42C79.0131 20.0067 79.6531 20.3 80.4665 20.3ZM96.3732 12L92.4532 22H90.2532L86.3332 12H88.9732L91.3532 18.88L93.7332 12H96.3732ZM100.054 22.2C99.4008 22.2 98.8141 22.0667 98.2941 21.8C97.7741 21.52 97.3675 21.14 97.0741 20.66C96.7808 20.1667 96.6341 19.62 96.6341 19.02C96.6341 17.9933 97.0408 17.2067 97.8541 16.66C98.6675 16.1133 99.8275 15.84 101.334 15.84H102.894V15.42C102.894 14.8867 102.734 14.48 102.414 14.2C102.107 13.9067 101.667 13.76 101.094 13.76C100.494 13.76 99.9208 13.8667 99.3741 14.08C98.8275 14.2933 98.3808 14.5867 98.0341 14.96L96.9141 13.48C97.4608 12.96 98.1075 12.5533 98.8541 12.26C99.6008 11.9533 100.374 11.8 101.174 11.8C102.507 11.8 103.554 12.1133 104.314 12.74C105.074 13.3667 105.454 14.2333 105.454 15.34V19.9C105.454 20.2067 105.474 20.5667 105.514 20.98C105.567 21.3933 105.627 21.7333 105.694 22H103.434C103.354 21.8267 103.294 21.66 103.254 21.5C103.214 21.3267 103.181 21.0933 103.154 20.8H103.114C102.354 21.7333 101.334 22.2 100.054 22.2ZM100.674 20.28C101.314 20.28 101.841 20.12 102.254 19.8C102.681 19.4667 102.894 19.0467 102.894 18.54V17.54H101.254C100.574 17.54 100.047 17.6667 99.6741 17.92C99.3141 18.1733 99.1341 18.54 99.1341 19.02C99.1341 19.42 99.2675 19.7333 99.5341 19.96C99.8141 20.1733 100.194 20.28 100.674 20.28ZM112.648 8H115.528V13.72H120.908V8H123.768V22H120.908V16.02H115.528V22H112.648V8ZM130.916 22.2C129.302 22.2 128.042 21.74 127.136 20.82C126.229 19.9 125.776 18.6267 125.776 17C125.776 15.3733 126.229 14.1 127.136 13.18C128.042 12.26 129.302 11.8 130.916 11.8C132.529 11.8 133.789 12.26 134.696 13.18C135.616 14.1 136.076 15.3733 136.076 17C136.076 18.6267 135.616 19.9 134.696 20.82C133.789 21.74 132.529 22.2 130.916 22.2ZM130.916 20.3C131.729 20.3 132.369 20.0067 132.836 19.42C133.302 18.8333 133.536 18.0267 133.536 17C133.536 15.9733 133.302 15.1667 132.836 14.58C132.369 13.9933 131.729 13.7 130.916 13.7C130.102 13.7 129.462 13.9933 128.996 14.58C128.542 15.1667 128.316 15.9733 128.316 17C128.316 18.0267 128.542 18.8333 128.996 19.42C129.462 20.0067 130.102 20.3 130.916 20.3ZM140.938 22.2C140.071 22.2 139.304 22.0267 138.638 21.68C137.984 21.3333 137.524 20.8733 137.258 20.3L138.838 19.2C139.078 19.5333 139.384 19.8 139.758 20C140.131 20.2 140.511 20.3 140.898 20.3C141.351 20.3 141.724 20.1867 142.018 19.96C142.311 19.72 142.458 19.4267 142.458 19.08C142.458 18.8 142.351 18.58 142.138 18.42C141.924 18.2467 141.471 18.0267 140.778 17.76C139.564 17.2933 138.711 16.82 138.218 16.34C137.724 15.86 137.478 15.2667 137.478 14.56C137.478 13.7333 137.811 13.0667 138.478 12.56C139.158 12.0533 140.058 11.8 141.178 11.8C141.924 11.8 142.598 11.9467 143.198 12.24C143.798 12.52 144.284 12.9267 144.658 13.46L143.178 14.56C142.711 13.9867 142.078 13.7 141.278 13.7C140.878 13.7 140.564 13.7733 140.338 13.92C140.124 14.0533 140.018 14.2533 140.018 14.52C140.018 14.7067 140.064 14.86 140.158 14.98C140.251 15.1 140.431 15.2267 140.698 15.36C140.964 15.4933 141.391 15.6733 141.978 15.9C142.764 16.2067 143.371 16.5067 143.798 16.8C144.238 17.08 144.544 17.3933 144.718 17.74C144.904 18.0733 144.998 18.48 144.998 18.96C144.998 19.6 144.824 20.1667 144.478 20.66C144.144 21.14 143.671 21.52 143.058 21.8C142.444 22.0667 141.738 22.2 140.938 22.2ZM146.606 14.66C146.606 13.58 146.579 12.6933 146.526 12H148.926C148.966 12.4 148.986 12.84 148.986 13.32H149.026C149.359 12.84 149.793 12.4667 150.326 12.2C150.859 11.9333 151.453 11.8 152.106 11.8C153.373 11.8 154.373 12.2667 155.106 13.2C155.839 14.1333 156.206 15.4067 156.206 17.02C156.206 18.6333 155.833 19.9 155.086 20.82C154.353 21.74 153.333 22.2 152.026 22.2C151.386 22.2 150.819 22.0933 150.326 21.88C149.833 21.6667 149.466 21.3667 149.226 20.98H149.166V26.84H146.606V14.66ZM151.466 20.3C152.173 20.3 152.713 20.0133 153.086 19.44C153.459 18.8533 153.646 18.02 153.646 16.94C153.646 14.82 152.933 13.76 151.506 13.76C150.813 13.76 150.246 13.9667 149.806 14.38C149.379 14.78 149.166 15.3133 149.166 15.98V18.04C149.166 18.68 149.386 19.22 149.826 19.66C150.266 20.0867 150.813 20.3 151.466 20.3ZM159.574 10.84C159.081 10.84 158.688 10.7067 158.394 10.44C158.101 10.16 157.954 9.79333 157.954 9.34C157.954 8.88667 158.101 8.52667 158.394 8.26C158.688 7.98 159.081 7.84 159.574 7.84C160.068 7.84 160.461 7.98 160.754 8.26C161.061 8.52667 161.214 8.88667 161.214 9.34C161.214 9.79333 161.068 10.16 160.774 10.44C160.481 10.7067 160.081 10.84 159.574 10.84ZM158.314 12H160.854V22H158.314V12ZM167.643 22.2C166.617 22.2 165.817 21.92 165.243 21.36C164.67 20.8 164.383 20.0133 164.383 19V13.9H162.563V12H164.383V9.42L166.863 8.7H166.943V12H169.843V13.9H166.943V18.62C166.943 19.1933 167.077 19.6133 167.343 19.88C167.61 20.1467 168.017 20.28 168.563 20.28C169.083 20.28 169.57 20.2 170.023 20.04L170.143 21.78C169.543 22.06 168.71 22.2 167.643 22.2ZM174.742 22.2C174.088 22.2 173.502 22.0667 172.982 21.8C172.462 21.52 172.055 21.14 171.762 20.66C171.468 20.1667 171.322 19.62 171.322 19.02C171.322 17.9933 171.728 17.2067 172.542 16.66C173.355 16.1133 174.515 15.84 176.022 15.84H177.582V15.42C177.582 14.8867 177.422 14.48 177.102 14.2C176.795 13.9067 176.355 13.76 175.782 13.76C175.182 13.76 174.608 13.8667 174.062 14.08C173.515 14.2933 173.068 14.5867 172.722 14.96L171.602 13.48C172.148 12.96 172.795 12.5533 173.542 12.26C174.288 11.9533 175.062 11.8 175.862 11.8C177.195 11.8 178.242 12.1133 179.002 12.74C179.762 13.3667 180.142 14.2333 180.142 15.34V19.9C180.142 20.2067 180.162 20.5667 180.202 20.98C180.255 21.3933 180.315 21.7333 180.382 22H178.122C178.042 21.8267 177.982 21.66 177.942 21.5C177.902 21.3267 177.868 21.0933 177.842 20.8H177.802C177.042 21.7333 176.022 22.2 174.742 22.2ZM175.362 20.28C176.002 20.28 176.528 20.12 176.942 19.8C177.368 19.4667 177.582 19.0467 177.582 18.54V17.54H175.942C175.262 17.54 174.735 17.6667 174.362 17.92C174.002 18.1733 173.822 18.54 173.822 19.02C173.822 19.42 173.955 19.7333 174.222 19.96C174.502 20.1733 174.882 20.28 175.362 20.28ZM185.068 22.2C184.214 22.2 183.561 21.9733 183.108 21.52C182.668 21.0533 182.448 20.3867 182.448 19.52V7.16H184.988V19.56C184.988 19.8533 185.061 20.0733 185.208 20.22C185.368 20.3533 185.601 20.42 185.908 20.42C186.214 20.42 186.594 20.3333 187.048 20.16L187.428 21.52C186.828 21.9733 186.041 22.2 185.068 22.2Z" fill="#1A3D93"/>
<path d="M64.8901 40.12C64.1221 40.12 63.4501 39.944 62.8741 39.592C62.3061 39.24 61.8661 38.74 61.5541 38.092C61.2421 37.436 61.0861 36.672 61.0861 35.8C61.0861 34.92 61.2421 34.156 61.5541 33.508C61.8661 32.86 62.3101 32.36 62.8861 32.008C63.4621 31.656 64.1381 31.48 64.9141 31.48C65.5621 31.48 66.1301 31.604 66.6181 31.852C67.1061 32.1 67.4661 32.448 67.6981 32.896L66.8341 33.676C66.4021 33.028 65.7661 32.704 64.9261 32.704C64.1821 32.704 63.6101 32.972 63.2101 33.508C62.8101 34.036 62.6101 34.8 62.6101 35.8C62.6101 36.792 62.8061 37.556 63.1981 38.092C63.5901 38.628 64.1501 38.896 64.8781 38.896C65.7661 38.896 66.4181 38.568 66.8341 37.912L67.6981 38.692C67.4661 39.148 67.1061 39.5 66.6181 39.748C66.1301 39.996 65.5541 40.12 64.8901 40.12ZM72.0949 40.12C71.3349 40.12 70.6749 39.948 70.1149 39.604C69.5549 39.252 69.1269 38.752 68.8309 38.104C68.5349 37.456 68.3869 36.688 68.3869 35.8C68.3869 34.912 68.5349 34.144 68.8309 33.496C69.1269 32.848 69.5549 32.352 70.1149 32.008C70.6749 31.656 71.3349 31.48 72.0949 31.48C72.8549 31.48 73.5109 31.656 74.0629 32.008C74.6229 32.352 75.0509 32.848 75.3469 33.496C75.6429 34.144 75.7909 34.912 75.7909 35.8C75.7909 36.688 75.6429 37.456 75.3469 38.104C75.0509 38.752 74.6229 39.252 74.0629 39.604C73.5109 39.948 72.8549 40.12 72.0949 40.12ZM72.0949 38.908C72.7669 38.908 73.2949 38.632 73.6789 38.08C74.0709 37.528 74.2669 36.768 74.2669 35.8C74.2669 34.832 74.0709 34.072 73.6789 33.52C73.2949 32.96 72.7669 32.68 72.0949 32.68C71.4149 32.68 70.8789 32.96 70.4869 33.52C70.1029 34.072 69.9109 34.832 69.9109 35.8C69.9109 36.768 70.1029 37.528 70.4869 38.08C70.8789 38.632 71.4149 38.908 72.0949 38.908ZM77.0468 31.6H79.8788C80.8148 31.6 81.5148 31.792 81.9788 32.176C82.4428 32.552 82.6748 33.128 82.6748 33.904C82.6748 34.456 82.5508 34.928 82.3028 35.32C82.0548 35.712 81.7028 35.988 81.2468 36.148V36.172C81.3988 36.276 81.5188 36.384 81.6068 36.496C81.7028 36.608 81.7828 36.736 81.8468 36.88L83.0828 40H81.4748L80.4788 37.384C80.3668 37.104 80.2268 36.916 80.0588 36.82C79.8908 36.716 79.6148 36.664 79.2308 36.664H78.5588V40H77.0468V31.6ZM79.7348 35.452C80.2148 35.452 80.5788 35.336 80.8268 35.104C81.0828 34.872 81.2108 34.528 81.2108 34.072C81.2108 33.24 80.7108 32.824 79.7108 32.824H78.5588V35.452H79.7348ZM84.1367 31.6H86.8247C87.7927 31.6 88.5247 31.824 89.0207 32.272C89.5247 32.712 89.7767 33.364 89.7767 34.228C89.7767 35.148 89.5167 35.848 88.9967 36.328C88.4847 36.8 87.7407 37.036 86.7647 37.036H85.6487V40H84.1367V31.6ZM86.8967 35.812C87.3527 35.812 87.7007 35.684 87.9407 35.428C88.1807 35.164 88.3007 34.784 88.3007 34.288C88.3007 33.808 88.1727 33.444 87.9167 33.196C87.6687 32.948 87.3007 32.824 86.8127 32.824H85.6487V35.812H86.8967ZM94.3722 40.12C93.6122 40.12 92.9522 39.948 92.3922 39.604C91.8322 39.252 91.4042 38.752 91.1082 38.104C90.8122 37.456 90.6642 36.688 90.6642 35.8C90.6642 34.912 90.8122 34.144 91.1082 33.496C91.4042 32.848 91.8322 32.352 92.3922 32.008C92.9522 31.656 93.6122 31.48 94.3722 31.48C95.1322 31.48 95.7882 31.656 96.3402 32.008C96.9002 32.352 97.3282 32.848 97.6242 33.496C97.9202 34.144 98.0682 34.912 98.0682 35.8C98.0682 36.688 97.9202 37.456 97.6242 38.104C97.3282 38.752 96.9002 39.252 96.3402 39.604C95.7882 39.948 95.1322 40.12 94.3722 40.12ZM94.3722 38.908C95.0442 38.908 95.5722 38.632 95.9562 38.08C96.3482 37.528 96.5442 36.768 96.5442 35.8C96.5442 34.832 96.3482 34.072 95.9562 33.52C95.5722 32.96 95.0442 32.68 94.3722 32.68C93.6922 32.68 93.1562 32.96 92.7642 33.52C92.3802 34.072 92.1882 34.832 92.1882 35.8C92.1882 36.768 92.3802 37.528 92.7642 38.08C93.1562 38.632 93.6922 38.908 94.3722 38.908ZM99.3242 31.6H102.156C103.092 31.6 103.792 31.792 104.256 32.176C104.72 32.552 104.952 33.128 104.952 33.904C104.952 34.456 104.828 34.928 104.58 35.32C104.332 35.712 103.98 35.988 103.524 36.148V36.172C103.676 36.276 103.796 36.384 103.884 36.496C103.98 36.608 104.06 36.736 104.124 36.88L105.36 40H103.752L102.756 37.384C102.644 37.104 102.504 36.916 102.336 36.82C102.168 36.716 101.892 36.664 101.508 36.664H100.836V40H99.3242V31.6ZM102.012 35.452C102.492 35.452 102.856 35.336 103.104 35.104C103.36 34.872 103.488 34.528 103.488 34.072C103.488 33.24 102.988 32.824 101.988 32.824H100.836V35.452H102.012ZM110.806 38.464H107.794L107.326 40H105.73L108.622 31.6H109.978L112.87 40H111.274L110.806 38.464ZM110.434 37.252L109.306 33.58L108.166 37.252H110.434ZM115.059 32.728H112.527V31.6H119.103V32.728H116.571V40H115.059V32.728ZM120.412 31.6H121.936V40H120.412V31.6ZM127.15 40.12C126.39 40.12 125.73 39.948 125.17 39.604C124.61 39.252 124.182 38.752 123.886 38.104C123.59 37.456 123.442 36.688 123.442 35.8C123.442 34.912 123.59 34.144 123.886 33.496C124.182 32.848 124.61 32.352 125.17 32.008C125.73 31.656 126.39 31.48 127.15 31.48C127.91 31.48 128.566 31.656 129.118 32.008C129.678 32.352 130.106 32.848 130.402 33.496C130.698 34.144 130.846 34.912 130.846 35.8C130.846 36.688 130.698 37.456 130.402 38.104C130.106 38.752 129.678 39.252 129.118 39.604C128.566 39.948 127.91 40.12 127.15 40.12ZM127.15 38.908C127.822 38.908 128.35 38.632 128.734 38.08C129.126 37.528 129.322 36.768 129.322 35.8C129.322 34.832 129.126 34.072 128.734 33.52C128.35 32.96 127.822 32.68 127.15 32.68C126.47 32.68 125.934 32.96 125.542 33.52C125.158 34.072 124.966 34.832 124.966 35.8C124.966 36.768 125.158 37.528 125.542 38.08C125.934 38.632 126.47 38.908 127.15 38.908ZM138.678 31.6V40H137.262L133.602 34.108V40H132.09V31.6H133.59L137.166 37.396V31.6H138.678ZM143.257 31.6H144.781V38.776H148.765V40H143.257V31.6ZM150.213 31.6H151.737V40H150.213V31.6ZM161.714 31.6V40H160.214V34.6L158.258 40H157.19L155.222 34.564V40H153.734V31.6H155.366L157.718 38.26L160.082 31.6H161.714ZM163.689 31.6H165.213V40H163.689V31.6ZM169.059 32.728H166.527V31.6H173.103V32.728H170.571V40H169.059V32.728ZM174.172 31.6H179.56V32.824H175.684V34.972H179.152V36.196H175.684V38.776H179.56V40H174.172V31.6ZM180.957 31.6H183.837C184.965 31.6 185.813 31.94 186.381 32.62C186.957 33.292 187.245 34.296 187.245 35.632C187.245 36.672 187.117 37.512 186.861 38.152C186.605 38.792 186.205 39.26 185.661 39.556C185.117 39.852 184.401 40 183.513 40H180.957V31.6ZM183.693 38.776C184.421 38.776 184.941 38.532 185.253 38.044C185.573 37.556 185.733 36.752 185.733 35.632C185.733 34.648 185.577 33.936 185.265 33.496C184.961 33.048 184.473 32.824 183.801 32.824H182.469V38.776H183.693Z" fill="black"/>
<defs>
<linearGradient id="paint0_linear_1_17" x1="12.5812" y1="25.0482" x2="49.7017" y2="25.0482" gradientUnits="userSpaceOnUse">
<stop stop-color="#403BEB"/>
<stop offset="1" stop-color="#22B7A0"/>
</linearGradient>
<linearGradient id="paint1_linear_1_17" x1="0.00277707" y1="21.0624" x2="42.7453" y2="21.0624" gradientUnits="userSpaceOnUse">
<stop stop-color="#403BEB"/>
<stop offset="1" stop-color="#22B7A0"/>
</linearGradient>
<linearGradient id="paint2_linear_1_17" x1="3.28863" y1="19.4611" x2="36.7456" y2="19.4611" gradientUnits="userSpaceOnUse">
<stop stop-color="#403BEB"/>
<stop offset="1" stop-color="#22B7A0"/>
</linearGradient>
</defs>
</svg>
