<svg width="189" height="44" viewBox="0 0 189 44" fill="none" xmlns="http://www.w3.org/2000/svg">
<mask id="mask0_63_9866" style="mask-type:luminance" maskUnits="userSpaceOnUse" x="0" y="0" width="50" height="44">
<path d="M49.7021 0H0V44H49.7021V0Z" fill="white"/>
</mask>
<g mask="url(#mask0_63_9866)">
<path d="M43.0937 6.21331L40.6666 18.5065C40.6616 18.5311 40.6634 18.5565 40.6718 18.5802C40.6799 18.6038 40.6945 18.6248 40.7137 18.641C40.7328 18.6572 40.756 18.6679 40.7806 18.6721C40.8054 18.6762 40.8308 18.6737 40.8541 18.6647L43.4491 17.6867C43.4553 17.7227 43.4616 17.76 43.4674 17.7946C44.0905 21.721 43.6339 25.7428 42.1466 29.4295C40.6591 33.1162 38.1969 36.3288 35.0237 38.7235C31.8502 41.1179 28.0854 42.6042 24.1319 43.0231C20.1787 43.4419 16.1859 42.7776 12.5812 41.1011C16.361 43.1973 20.6535 44.1897 24.9697 43.965C29.2859 43.7404 33.4524 42.3081 36.994 39.8309C40.5359 37.3537 43.3107 33.9317 45.0022 29.9542C46.6938 25.977 47.2343 21.6045 46.5618 17.3351L49.5504 17.5777C49.5759 17.5797 49.6011 17.5748 49.624 17.5635C49.6467 17.5522 49.6659 17.5349 49.6796 17.5135C49.6934 17.4921 49.7009 17.4674 49.7017 17.442C49.7023 17.4166 49.6963 17.3915 49.6838 17.3693L43.3532 6.1708C43.339 6.14594 43.3176 6.12601 43.2917 6.1137C43.2659 6.10138 43.2369 6.09725 43.2088 6.10188C43.1804 6.10651 43.1544 6.11968 43.1338 6.13958C43.1131 6.1595 43.0992 6.18524 43.0937 6.21331Z" fill="url(#paint0_linear_63_9866)"/>
<path d="M38.4578 31.8602C36.4972 34.3538 33.9792 36.3532 31.1063 37.6977C28.2331 39.0423 25.0849 39.6948 21.9142 39.6027C18.7434 39.5106 15.6383 38.6766 12.8481 37.1676C10.0579 35.6584 7.66033 33.5163 5.84771 30.913C4.03507 28.31 2.85787 25.3181 2.41055 22.1776C1.96326 19.0372 2.2583 15.8356 3.27204 12.8298C4.28575 9.82405 5.98992 7.09773 8.24779 4.86964C10.5057 2.64155 13.2544 0.973721 16.2734 0C12.3831 0.956122 8.8399 2.98642 6.04798 5.85928C3.25603 8.73215 1.32778 12.3319 0.48317 16.2479C-0.361438 20.1638 -0.0883882 24.2384 1.27117 28.0066C2.63074 31.775 5.02207 35.0851 8.17237 37.5598C11.3227 40.0345 15.1051 41.5739 19.0881 42.0023C23.0712 42.4308 27.0944 41.7312 30.6991 39.9832C34.3036 38.2352 37.3443 35.5094 39.4743 32.1165C41.6041 28.7236 42.7376 24.8004 42.7453 20.7944C42.4592 24.8298 40.9652 28.6855 38.4578 31.8602Z" fill="url(#paint1_linear_63_9866)"/>
<path d="M33.9969 10.4318C32.7467 12.0241 31.325 13.4739 29.7575 14.7552C29.7417 14.7682 29.7287 14.7846 29.72 14.8032C29.7112 14.8218 29.7067 14.8421 29.7067 14.8627V34.7542C29.7067 34.9142 29.6558 35.0701 29.5614 35.1993C29.467 35.3287 29.334 35.4246 29.1817 35.4733L29.1655 35.4785C29.0525 35.5148 28.9327 35.5238 28.8156 35.5048C28.6984 35.486 28.5874 35.4396 28.4917 35.3697C28.3959 35.2997 28.3179 35.2082 28.2641 35.1026C28.2104 34.9967 28.1825 34.8798 28.1825 34.7612V16.2162C28.1825 16.1907 28.1756 16.1657 28.1624 16.1439C28.1493 16.1221 28.1304 16.1043 28.1076 16.0925C28.0851 16.0807 28.0597 16.0753 28.0343 16.077C28.0089 16.0786 27.9843 16.0872 27.9634 16.1018C25.8878 17.5309 23.6251 18.667 21.2392 19.4778C21.2117 19.4871 21.1877 19.5048 21.1706 19.5284C21.1537 19.552 21.1446 19.5804 21.1446 19.6095V35.6744C21.1446 35.7859 21.1198 35.8961 21.072 35.9968C21.0243 36.0977 20.9549 36.1867 20.8688 36.2575C20.7826 36.3284 20.6818 36.379 20.5737 36.4063C20.4655 36.4334 20.3527 36.4363 20.2432 36.4146L20.2137 36.4088C20.043 36.375 19.8894 36.2829 19.7792 36.1483C19.6689 36.0137 19.6089 35.8451 19.6093 35.6711C19.6133 33.9414 19.6172 31.6126 19.6201 31.6143V20.1561C19.6201 20.1348 19.6152 20.1137 19.6058 20.0945C19.5963 20.0753 19.5826 20.0586 19.5656 20.0456C19.5486 20.0326 19.5289 20.0237 19.5079 20.0196C19.487 20.0154 19.4653 20.0161 19.4447 20.0217L19.3757 20.0399C17.4293 20.5514 15.707 21.693 14.478 23.2866C13.2489 24.8804 12.5822 26.8362 12.582 28.8487V31.4871C12.5824 31.6345 12.5395 31.7789 12.4588 31.9021C12.378 32.0254 12.2628 32.1223 12.1276 32.1809C11.9923 32.2392 11.8428 32.257 11.6977 32.2313C11.5525 32.2059 11.418 32.1384 11.3108 32.0371C8.32129 29.1638 6.42044 25.3428 5.93209 21.2252C5.44374 17.1076 6.3981 12.948 8.63261 9.45512C10.8671 5.96222 14.2435 3.3521 18.1866 2.0694C22.1296 0.786696 26.3955 0.910778 30.2574 2.42051C27.2168 0.975022 23.8447 0.369476 20.4911 0.666688C17.1374 0.963898 13.9244 2.15304 11.1853 4.11074C8.44624 6.06846 6.2809 8.7234 4.9139 11.8002C3.54691 14.8769 3.02807 18.2634 3.41122 21.6084C3.79438 24.9531 5.06556 28.1347 7.09291 30.8226C9.12025 33.5107 11.8299 35.6071 14.9407 36.8948C18.0515 38.1822 21.4503 38.614 24.7842 38.1454C28.1183 37.6765 31.2659 36.324 33.901 34.2284C34.8202 33.594 35.6778 32.8744 36.4618 32.079L36.5441 31.9908C36.6739 31.8516 36.746 31.6682 36.7456 31.4778V6.94267C36.7456 6.94267 36.7456 6.85515 36.7456 6.73907C36.7458 6.70804 36.7356 6.67782 36.7168 6.65317C36.6979 6.62854 36.6714 6.61087 36.6414 6.60297C36.6114 6.59507 36.5795 6.59738 36.551 6.60953C36.5224 6.62168 36.4989 6.64298 36.4836 6.67009C35.7586 7.98971 34.9269 9.24781 33.9969 10.4318Z" fill="url(#paint2_linear_63_9866)"/>
</g>
<path d="M73.3221 8V22H70.6621L64.9221 12.8V22H62.0621V8H64.8421L70.4621 17.06V8H73.3221ZM80.4665 22.2C78.8531 22.2 77.5931 21.74 76.6865 20.82C75.7798 19.9 75.3265 18.6267 75.3265 17C75.3265 15.3733 75.7798 14.1 76.6865 13.18C77.5931 12.26 78.8531 11.8 80.4665 11.8C82.0798 11.8 83.3398 12.26 84.2465 13.18C85.1665 14.1 85.6265 15.3733 85.6265 17C85.6265 18.6267 85.1665 19.9 84.2465 20.82C83.3398 21.74 82.0798 22.2 80.4665 22.2ZM80.4665 20.3C81.2798 20.3 81.9198 20.0067 82.3865 19.42C82.8531 18.8333 83.0865 18.0267 83.0865 17C83.0865 15.9733 82.8531 15.1667 82.3865 14.58C81.9198 13.9933 81.2798 13.7 80.4665 13.7C79.6531 13.7 79.0131 13.9933 78.5465 14.58C78.0931 15.1667 77.8665 15.9733 77.8665 17C77.8665 18.0267 78.0931 18.8333 78.5465 19.42C79.0131 20.0067 79.6531 20.3 80.4665 20.3ZM96.3732 12L92.4532 22H90.2532L86.3332 12H88.9732L91.3532 18.88L93.7332 12H96.3732ZM100.054 22.2C99.4008 22.2 98.8141 22.0667 98.2941 21.8C97.7741 21.52 97.3675 21.14 97.0741 20.66C96.7808 20.1667 96.6341 19.62 96.6341 19.02C96.6341 17.9933 97.0408 17.2067 97.8541 16.66C98.6675 16.1133 99.8275 15.84 101.334 15.84H102.894V15.42C102.894 14.8867 102.734 14.48 102.414 14.2C102.107 13.9067 101.667 13.76 101.094 13.76C100.494 13.76 99.9208 13.8667 99.3741 14.08C98.8275 14.2933 98.3808 14.5867 98.0341 14.96L96.9141 13.48C97.4608 12.96 98.1075 12.5533 98.8541 12.26C99.6008 11.9533 100.374 11.8 101.174 11.8C102.507 11.8 103.554 12.1133 104.314 12.74C105.074 13.3667 105.454 14.2333 105.454 15.34V19.9C105.454 20.2067 105.474 20.5667 105.514 20.98C105.567 21.3933 105.627 21.7333 105.694 22H103.434C103.354 21.8267 103.294 21.66 103.254 21.5C103.214 21.3267 103.181 21.0933 103.154 20.8H103.114C102.354 21.7333 101.334 22.2 100.054 22.2ZM100.674 20.28C101.314 20.28 101.841 20.12 102.254 19.8C102.681 19.4667 102.894 19.0467 102.894 18.54V17.54H101.254C100.574 17.54 100.047 17.6667 99.6741 17.92C99.3141 18.1733 99.1341 18.54 99.1341 19.02C99.1341 19.42 99.2675 19.7333 99.5341 19.96C99.8141 20.1733 100.194 20.28 100.674 20.28ZM123.908 8V22H121.248L115.508 12.8V22H112.648V8H115.428L121.048 17.06V8H123.908ZM135.492 17.94H128.532C128.746 19.3533 129.566 20.06 130.992 20.06C131.579 20.06 132.086 19.96 132.512 19.76C132.952 19.56 133.379 19.2267 133.792 18.76L135.172 20.08C134.786 20.72 134.199 21.2333 133.412 21.62C132.639 22.0067 131.786 22.2 130.852 22.2C129.292 22.2 128.079 21.7467 127.212 20.84C126.346 19.92 125.912 18.6533 125.912 17.04C125.912 15.4133 126.346 14.1333 127.212 13.2C128.092 12.2667 129.299 11.8 130.832 11.8C132.299 11.8 133.439 12.26 134.252 13.18C135.079 14.1 135.492 15.38 135.492 17.02V17.94ZM132.992 16.08C132.992 15.4 132.792 14.8667 132.392 14.48C132.006 14.08 131.466 13.88 130.772 13.88C130.146 13.88 129.639 14.0867 129.252 14.5C128.866 14.9 128.619 15.4667 128.512 16.2H132.992V16.08ZM139.992 16.92L136.652 12H139.472L141.312 14.96L143.152 12H145.972L142.652 16.92L146.252 22H143.392L141.312 18.74L139.232 22H136.372L139.992 16.92ZM150.963 22.2C149.816 22.2 148.943 21.8133 148.343 21.04C147.756 20.2667 147.463 19.1333 147.463 17.64V12H150.023V17.66C150.023 18.5133 150.163 19.14 150.443 19.54C150.723 19.94 151.156 20.14 151.743 20.14C152.45 20.14 153.03 19.8733 153.483 19.34C153.936 18.7933 154.163 18.12 154.163 17.32V12H156.723V19.46C156.723 20.14 156.776 20.9867 156.883 22H154.463C154.356 21.4 154.296 20.8133 154.283 20.24H154.243C154.003 20.84 153.583 21.32 152.983 21.68C152.396 22.0267 151.723 22.2 150.963 22.2ZM161.934 22.2C161.067 22.2 160.3 22.0267 159.634 21.68C158.98 21.3333 158.52 20.8733 158.254 20.3L159.834 19.2C160.074 19.5333 160.38 19.8 160.754 20C161.127 20.2 161.507 20.3 161.894 20.3C162.347 20.3 162.72 20.1867 163.014 19.96C163.307 19.72 163.454 19.4267 163.454 19.08C163.454 18.8 163.347 18.58 163.134 18.42C162.92 18.2467 162.467 18.0267 161.774 17.76C160.56 17.2933 159.707 16.82 159.214 16.34C158.72 15.86 158.474 15.2667 158.474 14.56C158.474 13.7333 158.807 13.0667 159.474 12.56C160.154 12.0533 161.054 11.8 162.174 11.8C162.92 11.8 163.594 11.9467 164.194 12.24C164.794 12.52 165.28 12.9267 165.654 13.46L164.174 14.56C163.707 13.9867 163.074 13.7 162.274 13.7C161.874 13.7 161.56 13.7733 161.334 13.92C161.12 14.0533 161.014 14.2533 161.014 14.52C161.014 14.7067 161.06 14.86 161.154 14.98C161.247 15.1 161.427 15.2267 161.694 15.36C161.96 15.4933 162.387 15.6733 162.974 15.9C163.76 16.2067 164.367 16.5067 164.794 16.8C165.234 17.08 165.54 17.3933 165.714 17.74C165.9 18.0733 165.994 18.48 165.994 18.96C165.994 19.6 165.82 20.1667 165.474 20.66C165.14 21.14 164.667 21.52 164.054 21.8C163.44 22.0667 162.734 22.2 161.934 22.2Z" fill="#1A3D93"/>
<path d="M64.8901 40.12C64.1221 40.12 63.4501 39.944 62.8741 39.592C62.3061 39.24 61.8661 38.74 61.5541 38.092C61.2421 37.436 61.0861 36.672 61.0861 35.8C61.0861 34.92 61.2421 34.156 61.5541 33.508C61.8661 32.86 62.3101 32.36 62.8861 32.008C63.4621 31.656 64.1381 31.48 64.9141 31.48C65.5621 31.48 66.1301 31.604 66.6181 31.852C67.1061 32.1 67.4661 32.448 67.6981 32.896L66.8341 33.676C66.4021 33.028 65.7661 32.704 64.9261 32.704C64.1821 32.704 63.6101 32.972 63.2101 33.508C62.8101 34.036 62.6101 34.8 62.6101 35.8C62.6101 36.792 62.8061 37.556 63.1981 38.092C63.5901 38.628 64.1501 38.896 64.8781 38.896C65.7661 38.896 66.4181 38.568 66.8341 37.912L67.6981 38.692C67.4661 39.148 67.1061 39.5 66.6181 39.748C66.1301 39.996 65.5541 40.12 64.8901 40.12ZM72.0949 40.12C71.3349 40.12 70.6749 39.948 70.1149 39.604C69.5549 39.252 69.1269 38.752 68.8309 38.104C68.5349 37.456 68.3869 36.688 68.3869 35.8C68.3869 34.912 68.5349 34.144 68.8309 33.496C69.1269 32.848 69.5549 32.352 70.1149 32.008C70.6749 31.656 71.3349 31.48 72.0949 31.48C72.8549 31.48 73.5109 31.656 74.0629 32.008C74.6229 32.352 75.0509 32.848 75.3469 33.496C75.6429 34.144 75.7909 34.912 75.7909 35.8C75.7909 36.688 75.6429 37.456 75.3469 38.104C75.0509 38.752 74.6229 39.252 74.0629 39.604C73.5109 39.948 72.8549 40.12 72.0949 40.12ZM72.0949 38.908C72.7669 38.908 73.2949 38.632 73.6789 38.08C74.0709 37.528 74.2669 36.768 74.2669 35.8C74.2669 34.832 74.0709 34.072 73.6789 33.52C73.2949 32.96 72.7669 32.68 72.0949 32.68C71.4149 32.68 70.8789 32.96 70.4869 33.52C70.1029 34.072 69.9109 34.832 69.9109 35.8C69.9109 36.768 70.1029 37.528 70.4869 38.08C70.8789 38.632 71.4149 38.908 72.0949 38.908ZM77.0468 31.6H79.8788C80.8148 31.6 81.5148 31.792 81.9788 32.176C82.4428 32.552 82.6748 33.128 82.6748 33.904C82.6748 34.456 82.5508 34.928 82.3028 35.32C82.0548 35.712 81.7028 35.988 81.2468 36.148V36.172C81.3988 36.276 81.5188 36.384 81.6068 36.496C81.7028 36.608 81.7828 36.736 81.8468 36.88L83.0828 40H81.4748L80.4788 37.384C80.3668 37.104 80.2268 36.916 80.0588 36.82C79.8908 36.716 79.6148 36.664 79.2308 36.664H78.5588V40H77.0468V31.6ZM79.7348 35.452C80.2148 35.452 80.5788 35.336 80.8268 35.104C81.0828 34.872 81.2108 34.528 81.2108 34.072C81.2108 33.24 80.7108 32.824 79.7108 32.824H78.5588V35.452H79.7348ZM84.1367 31.6H86.8247C87.7927 31.6 88.5247 31.824 89.0207 32.272C89.5247 32.712 89.7767 33.364 89.7767 34.228C89.7767 35.148 89.5167 35.848 88.9967 36.328C88.4847 36.8 87.7407 37.036 86.7647 37.036H85.6487V40H84.1367V31.6ZM86.8967 35.812C87.3527 35.812 87.7007 35.684 87.9407 35.428C88.1807 35.164 88.3007 34.784 88.3007 34.288C88.3007 33.808 88.1727 33.444 87.9167 33.196C87.6687 32.948 87.3007 32.824 86.8127 32.824H85.6487V35.812H86.8967ZM94.3722 40.12C93.6122 40.12 92.9522 39.948 92.3922 39.604C91.8322 39.252 91.4042 38.752 91.1082 38.104C90.8122 37.456 90.6642 36.688 90.6642 35.8C90.6642 34.912 90.8122 34.144 91.1082 33.496C91.4042 32.848 91.8322 32.352 92.3922 32.008C92.9522 31.656 93.6122 31.48 94.3722 31.48C95.1322 31.48 95.7882 31.656 96.3402 32.008C96.9002 32.352 97.3282 32.848 97.6242 33.496C97.9202 34.144 98.0682 34.912 98.0682 35.8C98.0682 36.688 97.9202 37.456 97.6242 38.104C97.3282 38.752 96.9002 39.252 96.3402 39.604C95.7882 39.948 95.1322 40.12 94.3722 40.12ZM94.3722 38.908C95.0442 38.908 95.5722 38.632 95.9562 38.08C96.3482 37.528 96.5442 36.768 96.5442 35.8C96.5442 34.832 96.3482 34.072 95.9562 33.52C95.5722 32.96 95.0442 32.68 94.3722 32.68C93.6922 32.68 93.1562 32.96 92.7642 33.52C92.3802 34.072 92.1882 34.832 92.1882 35.8C92.1882 36.768 92.3802 37.528 92.7642 38.08C93.1562 38.632 93.6922 38.908 94.3722 38.908ZM99.3242 31.6H102.156C103.092 31.6 103.792 31.792 104.256 32.176C104.72 32.552 104.952 33.128 104.952 33.904C104.952 34.456 104.828 34.928 104.58 35.32C104.332 35.712 103.98 35.988 103.524 36.148V36.172C103.676 36.276 103.796 36.384 103.884 36.496C103.98 36.608 104.06 36.736 104.124 36.88L105.36 40H103.752L102.756 37.384C102.644 37.104 102.504 36.916 102.336 36.82C102.168 36.716 101.892 36.664 101.508 36.664H100.836V40H99.3242V31.6ZM102.012 35.452C102.492 35.452 102.856 35.336 103.104 35.104C103.36 34.872 103.488 34.528 103.488 34.072C103.488 33.24 102.988 32.824 101.988 32.824H100.836V35.452H102.012ZM110.806 38.464H107.794L107.326 40H105.73L108.622 31.6H109.978L112.87 40H111.274L110.806 38.464ZM110.434 37.252L109.306 33.58L108.166 37.252H110.434ZM115.059 32.728H112.527V31.6H119.103V32.728H116.571V40H115.059V32.728ZM120.412 31.6H121.936V40H120.412V31.6ZM127.15 40.12C126.39 40.12 125.73 39.948 125.17 39.604C124.61 39.252 124.182 38.752 123.886 38.104C123.59 37.456 123.442 36.688 123.442 35.8C123.442 34.912 123.59 34.144 123.886 33.496C124.182 32.848 124.61 32.352 125.17 32.008C125.73 31.656 126.39 31.48 127.15 31.48C127.91 31.48 128.566 31.656 129.118 32.008C129.678 32.352 130.106 32.848 130.402 33.496C130.698 34.144 130.846 34.912 130.846 35.8C130.846 36.688 130.698 37.456 130.402 38.104C130.106 38.752 129.678 39.252 129.118 39.604C128.566 39.948 127.91 40.12 127.15 40.12ZM127.15 38.908C127.822 38.908 128.35 38.632 128.734 38.08C129.126 37.528 129.322 36.768 129.322 35.8C129.322 34.832 129.126 34.072 128.734 33.52C128.35 32.96 127.822 32.68 127.15 32.68C126.47 32.68 125.934 32.96 125.542 33.52C125.158 34.072 124.966 34.832 124.966 35.8C124.966 36.768 125.158 37.528 125.542 38.08C125.934 38.632 126.47 38.908 127.15 38.908ZM138.678 31.6V40H137.262L133.602 34.108V40H132.09V31.6H133.59L137.166 37.396V31.6H138.678ZM143.257 31.6H144.781V38.776H148.765V40H143.257V31.6ZM150.213 31.6H151.737V40H150.213V31.6ZM161.714 31.6V40H160.214V34.6L158.258 40H157.19L155.222 34.564V40H153.734V31.6H155.366L157.718 38.26L160.082 31.6H161.714ZM163.689 31.6H165.213V40H163.689V31.6ZM169.059 32.728H166.527V31.6H173.103V32.728H170.571V40H169.059V32.728ZM174.172 31.6H179.56V32.824H175.684V34.972H179.152V36.196H175.684V38.776H179.56V40H174.172V31.6ZM180.957 31.6H183.837C184.965 31.6 185.813 31.94 186.381 32.62C186.957 33.292 187.245 34.296 187.245 35.632C187.245 36.672 187.117 37.512 186.861 38.152C186.605 38.792 186.205 39.26 185.661 39.556C185.117 39.852 184.401 40 183.513 40H180.957V31.6ZM183.693 38.776C184.421 38.776 184.941 38.532 185.253 38.044C185.573 37.556 185.733 36.752 185.733 35.632C185.733 34.648 185.577 33.936 185.265 33.496C184.961 33.048 184.473 32.824 183.801 32.824H182.469V38.776H183.693Z" fill="black"/>
<defs>
<linearGradient id="paint0_linear_63_9866" x1="12.5812" y1="25.0482" x2="49.7017" y2="25.0482" gradientUnits="userSpaceOnUse">
<stop stop-color="#403BEB"/>
<stop offset="1" stop-color="#22B7A0"/>
</linearGradient>
<linearGradient id="paint1_linear_63_9866" x1="0.00277707" y1="21.0624" x2="42.7453" y2="21.0624" gradientUnits="userSpaceOnUse">
<stop stop-color="#403BEB"/>
<stop offset="1" stop-color="#22B7A0"/>
</linearGradient>
<linearGradient id="paint2_linear_63_9866" x1="3.28865" y1="19.4611" x2="36.7456" y2="19.4611" gradientUnits="userSpaceOnUse">
<stop stop-color="#403BEB"/>
<stop offset="1" stop-color="#22B7A0"/>
</linearGradient>
</defs>
</svg>
