<svg width="185" height="44" viewBox="0 0 185 44" fill="none" xmlns="http://www.w3.org/2000/svg">
<mask id="mask0_94_14647" style="mask-type:luminance" maskUnits="userSpaceOnUse" x="0" y="0" width="36" height="44">
<path d="M35.2 0H0V44H35.2V0Z" fill="white"/>
</mask>
<g mask="url(#mask0_94_14647)">
<path d="M17.6016 33.9654V44.0003L35.2 33.8354V23.8018L17.6016 33.9654Z" fill="#E77455"/>
<path d="M25.4794 14.5848L34.1627 9.56736L17.6016 0V10.0346L25.4794 14.5848Z" fill="#F16623"/>
<path d="M10.762 17.581V27.6189L17.6013 31.5684V21.5351L10.762 17.581Z" fill="#B86E75"/>
<path d="M35.2 11.366L17.6016 21.535V31.5684L35.2 21.4035V11.366Z" fill="#E77455"/>
<path d="M1.04797 9.56151L9.67922 14.6083L17.6013 10.0346V0L1.04797 9.56151Z" fill="#E77455"/>
<path d="M8.68625 28.818V16.3773L0 11.3615V33.8352L17.6013 44V33.9652L8.68625 28.818Z" fill="#B86E75"/>
</g>
<path d="M58.84 9.5L53.98 23.5H51.36L46.5 9.5H49.5L52.68 19.84L55.84 9.5H58.84ZM67.7677 19.44H60.8077C61.021 20.8533 61.841 21.56 63.2677 21.56C63.8543 21.56 64.361 21.46 64.7877 21.26C65.2277 21.06 65.6543 20.7267 66.0677 20.26L67.4477 21.58C67.061 22.22 66.4743 22.7333 65.6877 23.12C64.9143 23.5067 64.061 23.7 63.1277 23.7C61.5677 23.7 60.3543 23.2467 59.4877 22.34C58.621 21.42 58.1877 20.1533 58.1877 18.54C58.1877 16.9133 58.621 15.6333 59.4877 14.7C60.3677 13.7667 61.5743 13.3 63.1077 13.3C64.5743 13.3 65.7143 13.76 66.5277 14.68C67.3543 15.6 67.7677 16.88 67.7677 18.52V19.44ZM65.2677 17.58C65.2677 16.9 65.0677 16.3667 64.6677 15.98C64.281 15.58 63.741 15.38 63.0477 15.38C62.421 15.38 61.9143 15.5867 61.5277 16C61.141 16.4 60.8943 16.9667 60.7877 17.7H65.2677V17.58ZM69.4675 15.94C69.4675 14.8067 69.4475 13.9933 69.4075 13.5H71.8275C71.8808 14.02 71.9075 14.6067 71.9075 15.26V15.46H71.9875C72.2408 14.8067 72.6875 14.2867 73.3275 13.9C73.9675 13.5 74.7008 13.3 75.5275 13.3C75.6875 13.3 75.8875 13.32 76.1275 13.36V15.38C76.0742 15.3533 75.9142 15.34 75.6475 15.34C75.0075 15.34 74.4075 15.5133 73.8475 15.86C73.3008 16.2067 72.8608 16.6733 72.5275 17.26C72.1942 17.8333 72.0275 18.4533 72.0275 19.12V23.5H69.4675V15.94ZM81.6567 23.7C80.6301 23.7 79.8301 23.42 79.2567 22.86C78.6834 22.3 78.3967 21.5133 78.3967 20.5V15.4H76.5767V13.5H78.3967V10.92L80.8767 10.2H80.9567V13.5H83.8567V15.4H80.9567V20.12C80.9567 20.6933 81.0901 21.1133 81.3567 21.38C81.6234 21.6467 82.0301 21.78 82.5767 21.78C83.0967 21.78 83.5834 21.7 84.0367 21.54L84.1567 23.28C83.5567 23.56 82.7234 23.7 81.6567 23.7ZM94.9552 19.44H87.9952C88.2085 20.8533 89.0285 21.56 90.4552 21.56C91.0418 21.56 91.5485 21.46 91.9752 21.26C92.4152 21.06 92.8418 20.7267 93.2552 20.26L94.6352 21.58C94.2485 22.22 93.6618 22.7333 92.8752 23.12C92.1018 23.5067 91.2485 23.7 90.3152 23.7C88.7552 23.7 87.5418 23.2467 86.6752 22.34C85.8085 21.42 85.3752 20.1533 85.3752 18.54C85.3752 16.9133 85.8085 15.6333 86.6752 14.7C87.5552 13.7667 88.7618 13.3 90.2952 13.3C91.7618 13.3 92.9018 13.76 93.7152 14.68C94.5418 15.6 94.9552 16.88 94.9552 18.52V19.44ZM92.4552 17.58C92.4552 16.9 92.2552 16.3667 91.8552 15.98C91.4685 15.58 90.9285 15.38 90.2352 15.38C89.6085 15.38 89.1018 15.5867 88.7152 16C88.3285 16.4 88.0818 16.9667 87.9752 17.7H92.4552V17.58ZM99.455 18.42L96.115 13.5H98.935L100.775 16.46L102.615 13.5H105.435L102.115 18.42L105.715 23.5H102.855L100.775 20.24L98.695 23.5H95.835L99.455 18.42ZM111.994 9.5H116.534C118.147 9.5 119.374 9.8 120.214 10.4C121.054 10.9867 121.474 11.8533 121.474 13C121.474 13.6667 121.32 14.24 121.014 14.72C120.707 15.2 120.227 15.6067 119.574 15.94V16C120.427 16.32 121.04 16.7467 121.414 17.28C121.8 17.8133 121.994 18.5133 121.994 19.38C121.994 20.7133 121.6 21.7333 120.814 22.44C120.04 23.1467 118.907 23.5 117.414 23.5H111.994V9.5ZM116.794 15.08C117.354 15.08 117.787 14.9267 118.094 14.62C118.414 14.3 118.574 13.86 118.574 13.3C118.574 12.7533 118.394 12.3533 118.034 12.1C117.687 11.8467 117.147 11.72 116.414 11.72H114.874V15.08H116.794ZM117.194 21.28C117.82 21.28 118.3 21.1 118.634 20.74C118.98 20.38 119.154 19.8667 119.154 19.2C119.154 18.4933 118.947 17.98 118.534 17.66C118.12 17.34 117.454 17.18 116.534 17.18H114.874V21.28H117.194ZM127.223 23.7C126.076 23.7 125.203 23.3133 124.603 22.54C124.016 21.7667 123.723 20.6333 123.723 19.14V13.5H126.283V19.16C126.283 20.0133 126.423 20.64 126.703 21.04C126.983 21.44 127.416 21.64 128.003 21.64C128.709 21.64 129.289 21.3733 129.743 20.84C130.196 20.2933 130.423 19.62 130.423 18.82V13.5H132.983V20.96C132.983 21.64 133.036 22.4867 133.143 23.5H130.723C130.616 22.9 130.556 22.3133 130.543 21.74H130.503C130.263 22.34 129.843 22.82 129.243 23.18C128.656 23.5267 127.983 23.7 127.223 23.7ZM136.693 12.34C136.2 12.34 135.807 12.2067 135.513 11.94C135.22 11.66 135.073 11.2933 135.073 10.84C135.073 10.3867 135.22 10.0267 135.513 9.76C135.807 9.48 136.2 9.34 136.693 9.34C137.187 9.34 137.58 9.48 137.873 9.76C138.18 10.0267 138.333 10.3867 138.333 10.84C138.333 11.2933 138.187 11.66 137.893 11.94C137.6 12.2067 137.2 12.34 136.693 12.34ZM135.433 13.5H137.973V23.5H135.433V13.5ZM143.202 23.7C142.349 23.7 141.696 23.4733 141.242 23.02C140.802 22.5533 140.582 21.8867 140.582 21.02V8.66H143.122V21.06C143.122 21.3533 143.196 21.5733 143.342 21.72C143.502 21.8533 143.736 21.92 144.042 21.92C144.349 21.92 144.729 21.8333 145.182 21.66L145.562 23.02C144.962 23.4733 144.176 23.7 143.202 23.7ZM149.827 23.7C148.521 23.7 147.487 23.2267 146.727 22.28C145.981 21.32 145.607 20.0067 145.607 18.34C145.607 17.3267 145.781 16.44 146.127 15.68C146.474 14.92 146.967 14.3333 147.607 13.92C148.261 13.5067 149.021 13.3 149.887 13.3C150.474 13.3 150.987 13.4 151.427 13.6C151.881 13.8 152.274 14.1067 152.607 14.52H152.647V8.66H155.187V20.84C155.187 22.2267 155.207 23.1133 155.247 23.5H152.847C152.834 23.2733 152.827 22.8333 152.827 22.18H152.787C152.481 22.6333 152.054 23 151.507 23.28C150.974 23.56 150.414 23.7 149.827 23.7ZM150.327 21.74C151.034 21.74 151.594 21.54 152.007 21.14C152.434 20.7267 152.647 20.1867 152.647 19.52V17.46C152.647 16.8067 152.427 16.2667 151.987 15.84C151.547 15.4133 150.994 15.2 150.327 15.2C149.621 15.2 149.081 15.4733 148.707 16.02C148.334 16.5667 148.147 17.3533 148.147 18.38C148.147 19.46 148.334 20.2933 148.707 20.88C149.081 21.4533 149.621 21.74 150.327 21.74ZM158.94 12.34C158.446 12.34 158.053 12.2067 157.76 11.94C157.466 11.66 157.32 11.2933 157.32 10.84C157.32 10.3867 157.466 10.0267 157.76 9.76C158.053 9.48 158.446 9.34 158.94 9.34C159.433 9.34 159.826 9.48 160.12 9.76C160.426 10.0267 160.58 10.3867 160.58 10.84C160.58 11.2933 160.433 11.66 160.14 11.94C159.846 12.2067 159.446 12.34 158.94 12.34ZM157.68 13.5H160.22V23.5H157.68V13.5ZM162.628 16.14C162.628 14.9267 162.602 14.0467 162.548 13.5H164.948C165.015 14.06 165.048 14.64 165.048 15.24H165.108C165.348 14.6533 165.768 14.1867 166.368 13.84C166.982 13.48 167.662 13.3 168.408 13.3C169.555 13.3 170.422 13.6867 171.008 14.46C171.595 15.2333 171.888 16.3733 171.888 17.88V23.5H169.348V17.86C169.348 16.9933 169.208 16.36 168.928 15.96C168.648 15.56 168.202 15.36 167.588 15.36C166.882 15.36 166.302 15.6133 165.848 16.12C165.408 16.6133 165.188 17.2533 165.188 18.04V23.5H162.628V16.14ZM183.078 13.5V23.1C183.078 24.7933 182.658 26.0667 181.818 26.92C180.978 27.7867 179.731 28.22 178.078 28.22C177.304 28.22 176.571 28.1267 175.878 27.94C175.198 27.7533 174.591 27.4867 174.058 27.14L174.918 25.4C175.398 25.64 175.904 25.8267 176.438 25.96C176.971 26.1067 177.478 26.18 177.958 26.18C178.864 26.18 179.538 25.8933 179.978 25.32C180.418 24.76 180.638 23.9067 180.638 22.76V22.44C180.371 22.8 180.004 23.08 179.538 23.28C179.071 23.4667 178.518 23.56 177.878 23.56C176.491 23.56 175.411 23.1067 174.638 22.2C173.878 21.2933 173.498 20.0133 173.498 18.36C173.498 16.76 173.864 15.52 174.598 14.64C175.331 13.7467 176.364 13.3 177.698 13.3C179.084 13.3 180.091 13.7867 180.718 14.76H180.758L180.958 13.5H183.078ZM180.538 17.88C180.538 17.0133 180.351 16.3533 179.978 15.9C179.604 15.4333 179.064 15.2 178.358 15.2C177.611 15.2 177.038 15.48 176.638 16.04C176.238 16.5867 176.038 17.38 176.038 18.42C176.038 19.46 176.231 20.2467 176.618 20.78C177.018 21.3133 177.598 21.58 178.358 21.58C179.064 21.58 179.604 21.3733 179.978 20.96C180.351 20.5333 180.538 19.9333 180.538 19.16V17.88Z" fill="#DB4700"/>
<path d="M49.69 39.6C49.05 39.6 48.49 39.4533 48.01 39.16C47.5367 38.8667 47.17 38.45 46.91 37.91C46.65 37.3633 46.52 36.7267 46.52 36C46.52 35.2667 46.65 34.63 46.91 34.09C47.17 33.55 47.54 33.1333 48.02 32.84C48.5 32.5467 49.0633 32.4 49.71 32.4C50.25 32.4 50.7233 32.5033 51.13 32.71C51.5367 32.9167 51.8367 33.2067 52.03 33.58L51.31 34.23C50.95 33.69 50.42 33.42 49.72 33.42C49.1 33.42 48.6233 33.6433 48.29 34.09C47.9567 34.53 47.79 35.1667 47.79 36C47.79 36.8267 47.9533 37.4633 48.28 37.91C48.6067 38.3567 49.0733 38.58 49.68 38.58C50.42 38.58 50.9633 38.3067 51.31 37.76L52.03 38.41C51.8367 38.79 51.5367 39.0833 51.13 39.29C50.7233 39.4967 50.2433 39.6 49.69 39.6ZM55.694 39.6C55.0607 39.6 54.5107 39.4567 54.044 39.17C53.5773 38.8767 53.2207 38.46 52.974 37.92C52.7273 37.38 52.604 36.74 52.604 36C52.604 35.26 52.7273 34.62 52.974 34.08C53.2207 33.54 53.5773 33.1267 54.044 32.84C54.5107 32.5467 55.0607 32.4 55.694 32.4C56.3273 32.4 56.874 32.5467 57.334 32.84C57.8007 33.1267 58.1573 33.54 58.404 34.08C58.6507 34.62 58.774 35.26 58.774 36C58.774 36.74 58.6507 37.38 58.404 37.92C58.1573 38.46 57.8007 38.8767 57.334 39.17C56.874 39.4567 56.3273 39.6 55.694 39.6ZM55.694 38.59C56.254 38.59 56.694 38.36 57.014 37.9C57.3407 37.44 57.504 36.8067 57.504 36C57.504 35.1933 57.3407 34.56 57.014 34.1C56.694 33.6333 56.254 33.4 55.694 33.4C55.1273 33.4 54.6807 33.6333 54.354 34.1C54.034 34.56 53.874 35.1933 53.874 36C53.874 36.8067 54.034 37.44 54.354 37.9C54.6807 38.36 55.1273 38.59 55.694 38.59ZM59.8206 32.5H62.1806C62.9606 32.5 63.544 32.66 63.9306 32.98C64.3173 33.2933 64.5106 33.7733 64.5106 34.42C64.5106 34.88 64.4073 35.2733 64.2006 35.6C63.994 35.9267 63.7006 36.1567 63.3206 36.29V36.31C63.4473 36.3967 63.5473 36.4867 63.6206 36.58C63.7006 36.6733 63.7673 36.78 63.8206 36.9L64.8506 39.5H63.5106L62.6806 37.32C62.5873 37.0867 62.4706 36.93 62.3306 36.85C62.1906 36.7633 61.9606 36.72 61.6406 36.72H61.0806V39.5H59.8206V32.5ZM62.0606 35.71C62.4606 35.71 62.764 35.6133 62.9706 35.42C63.184 35.2267 63.2906 34.94 63.2906 34.56C63.2906 33.8667 62.874 33.52 62.0406 33.52H61.0806V35.71H62.0606ZM65.7288 32.5H67.9688C68.7755 32.5 69.3855 32.6867 69.7988 33.06C70.2188 33.4267 70.4288 33.97 70.4288 34.69C70.4288 35.4567 70.2122 36.04 69.7788 36.44C69.3522 36.8333 68.7322 37.03 67.9188 37.03H66.9888V39.5H65.7288V32.5ZM68.0288 36.01C68.4088 36.01 68.6988 35.9033 68.8988 35.69C69.0988 35.47 69.1988 35.1533 69.1988 34.74C69.1988 34.34 69.0922 34.0367 68.8788 33.83C68.6722 33.6233 68.3655 33.52 67.9588 33.52H66.9888V36.01H68.0288ZM74.2584 39.6C73.6251 39.6 73.0751 39.4567 72.6084 39.17C72.1418 38.8767 71.7851 38.46 71.5384 37.92C71.2918 37.38 71.1684 36.74 71.1684 36C71.1684 35.26 71.2918 34.62 71.5384 34.08C71.7851 33.54 72.1418 33.1267 72.6084 32.84C73.0751 32.5467 73.6251 32.4 74.2584 32.4C74.8918 32.4 75.4384 32.5467 75.8984 32.84C76.3651 33.1267 76.7218 33.54 76.9685 34.08C77.2151 34.62 77.3385 35.26 77.3385 36C77.3385 36.74 77.2151 37.38 76.9685 37.92C76.7218 38.46 76.3651 38.8767 75.8984 39.17C75.4384 39.4567 74.8918 39.6 74.2584 39.6ZM74.2584 38.59C74.8184 38.59 75.2584 38.36 75.5784 37.9C75.9051 37.44 76.0684 36.8067 76.0684 36C76.0684 35.1933 75.9051 34.56 75.5784 34.1C75.2584 33.6333 74.8184 33.4 74.2584 33.4C73.6918 33.4 73.2451 33.6333 72.9184 34.1C72.5984 34.56 72.4384 35.1933 72.4384 36C72.4384 36.8067 72.5984 37.44 72.9184 37.9C73.2451 38.36 73.6918 38.59 74.2584 38.59ZM78.3851 32.5H80.7451C81.5251 32.5 82.1084 32.66 82.4951 32.98C82.8818 33.2933 83.0751 33.7733 83.0751 34.42C83.0751 34.88 82.9718 35.2733 82.7651 35.6C82.5584 35.9267 82.2651 36.1567 81.8851 36.29V36.31C82.0118 36.3967 82.1118 36.4867 82.1851 36.58C82.2651 36.6733 82.3318 36.78 82.3851 36.9L83.4151 39.5H82.0751L81.2451 37.32C81.1518 37.0867 81.0351 36.93 80.8951 36.85C80.7551 36.7633 80.5251 36.72 80.2051 36.72H79.6451V39.5H78.3851V32.5ZM80.6251 35.71C81.0251 35.71 81.3284 35.6133 81.5351 35.42C81.7484 35.2267 81.8551 34.94 81.8551 34.56C81.8551 33.8667 81.4384 33.52 80.6051 33.52H79.6451V35.71H80.6251ZM87.9533 38.22H85.4433L85.0533 39.5H83.7233L86.1333 32.5H87.2633L89.6733 39.5H88.3433L87.9533 38.22ZM87.6433 37.21L86.7033 34.15L85.7533 37.21H87.6433ZM91.4974 33.44H89.3874V32.5H94.8674V33.44H92.7574V39.5H91.4974V33.44ZM95.9581 32.5H97.2281V39.5H95.9581V32.5ZM101.573 39.6C100.94 39.6 100.39 39.4567 99.9229 39.17C99.4562 38.8767 99.0996 38.46 98.8529 37.92C98.6062 37.38 98.4829 36.74 98.4829 36C98.4829 35.26 98.6062 34.62 98.8529 34.08C99.0996 33.54 99.4562 33.1267 99.9229 32.84C100.39 32.5467 100.94 32.4 101.573 32.4C102.206 32.4 102.753 32.5467 103.213 32.84C103.68 33.1267 104.036 33.54 104.283 34.08C104.53 34.62 104.653 35.26 104.653 36C104.653 36.74 104.53 37.38 104.283 37.92C104.036 38.46 103.68 38.8767 103.213 39.17C102.753 39.4567 102.206 39.6 101.573 39.6ZM101.573 38.59C102.133 38.59 102.573 38.36 102.893 37.9C103.22 37.44 103.383 36.8067 103.383 36C103.383 35.1933 103.22 34.56 102.893 34.1C102.573 33.6333 102.133 33.4 101.573 33.4C101.006 33.4 100.56 33.6333 100.233 34.1C99.9129 34.56 99.7529 35.1933 99.7529 36C99.7529 36.8067 99.9129 37.44 100.233 37.9C100.56 38.36 101.006 38.59 101.573 38.59ZM111.18 32.5V39.5H110L106.95 34.59V39.5H105.69V32.5H106.94L109.92 37.33V32.5H111.18ZM114.996 32.5H116.266V38.48H119.586V39.5H114.996V32.5ZM120.792 32.5H122.062V39.5H120.792V32.5ZM130.377 32.5V39.5H129.127V35L127.497 39.5H126.607L124.967 34.97V39.5H123.727V32.5H125.087L127.047 38.05L129.017 32.5H130.377ZM132.023 32.5H133.293V39.5H132.023V32.5ZM136.497 33.44H134.387V32.5H139.867V33.44H137.757V39.5H136.497V33.44ZM140.758 32.5H145.248V33.52H142.018V35.31H144.908V36.33H142.018V38.48H145.248V39.5H140.758V32.5ZM146.412 32.5H148.812C149.752 32.5 150.459 32.7833 150.932 33.35C151.412 33.91 151.652 34.7467 151.652 35.86C151.652 36.7267 151.546 37.4267 151.332 37.96C151.119 38.4933 150.786 38.8833 150.332 39.13C149.879 39.3767 149.282 39.5 148.542 39.5H146.412V32.5ZM148.692 38.48C149.299 38.48 149.732 38.2767 149.992 37.87C150.259 37.4633 150.392 36.7933 150.392 35.86C150.392 35.04 150.262 34.4467 150.002 34.08C149.749 33.7067 149.342 33.52 148.782 33.52H147.672V38.48H148.692Z" fill="black"/>
</svg>
